<svg xmlns="http://www.w3.org/2000/svg" style="display:none">
  <symbol id="i-audio" viewBox="0 0 24 24" fill="none" stroke="currentColor" stroke-width="1.8"><path d="M5 15v-6M9 19V5m4 14V5m4 10V9"/></symbol>
  <symbol id="i-doc" viewBox="0 0 24 24" fill="none" stroke="currentColor" stroke-width="1.8"><path d="M14 3H7a2 2 0 0 0-2 2v14a2 2 0 0 0 2 2h10a2 2 0 0 0 2-2V8z"/><path d="M14 3v5h5"/><path d="M9 13h6M9 17h6M9 9h3"/></symbol>
  <symbol id="i-profile" viewBox="0 0 24 24" fill="none" stroke="currentColor" stroke-width="1.8"><circle cx="12" cy="7" r="3"/><path d="M5 21a7 7 0 0 1 14 0"/></symbol>
  <symbol id="i-finance" viewBox="0 0 24 24" fill="none" stroke="currentColor" stroke-width="1.8"><path d="M3 20h18M5 16l4-4 4 4 5-6"/><circle cx="18" cy="8" r="2"/></symbol>
  <symbol id="i-search" viewBox="0 0 24 24" fill="none" stroke="currentColor" stroke-width="1.8"><circle cx="11" cy="11" r="7"/><path d="M21 21l-4.3-4.3"/></symbol>
  <symbol id="i-shield" viewBox="0 0 24 24" fill="none" stroke="currentColor" stroke-width="1.8"><path d="M12 3l7 3v6c0 5-3.5 8-7 9-3.5-1-7-4-7-9V6l7-3z"/></symbol>
  <symbol id="i-headset" viewBox="0 0 24 24" fill="none" stroke="currentColor" stroke-width="1.8"><path d="M21 13a9 9 0 1 0-18 0"/><rect x="3" y="12" width="5" height="7" rx="2"/><rect x="16" y="12" width="5" height="7" rx="2"/><path d="M12 19v2"/></symbol>
  <symbol id="i-report" viewBox="0 0 24 24" fill="none" stroke="currentColor" stroke-width="1.8"><path d="M6 4h9l3 3v13a2 2 0 0 1-2 2H6z"/><path d="M15 4v5h5"/><path d="M8 12h8M8 16h8"/></symbol>
  <symbol id="i-delivery" viewBox="0 0 24 24" fill="none" stroke="currentColor" stroke-width="1.8"><path d="M3 7h11v8H3zM14 10h4l3 3v2h-7z"/><circle cx="7.5" cy="17" r="2"/><circle cx="17" cy="17" r="2"/></symbol>
  <symbol id="i-lab" viewBox="0 0 24 24" fill="none" stroke="currentColor" stroke-width="1.8"><path d="M10 2v6L5 20a3 3 0 0 0 3 3h8a3 3 0 0 0 3-3L14 8V2"/><path d="M8 12h8"/></symbol>
  <symbol id="i-council" viewBox="0 0 24 24" fill="none" stroke="currentColor" stroke-width="1.8"><path d="M3 10l9-6 9 6v9H3z"/><path d="M7 19v-6M12 19v-6M17 19v-6"/></symbol>
  <symbol id="i-law" viewBox="0 0 24 24" fill="none" stroke="currentColor" stroke-width="1.8"><circle cx="12" cy="4" r="1"/><path d="M12 5v4M7 9l-4 6h8l-4-6zM17 9l-4 6h8l-4-6zM12 19v-4M6 20h12"/></symbol>
  <symbol id="i-office" viewBox="0 0 24 24" fill="none" stroke="currentColor" stroke-width="1.8"><rect x="3" y="4" width="8" height="16"/><rect x="13" y="8" width="8" height="12"/><path d="M7 8h1M7 12h1M7 16h1M17 12h1M17 16h1"/></symbol>
  <symbol id="i-regulator" viewBox="0 0 24 24" fill="none" stroke="currentColor" stroke-width="1.8"><path d="M12 2l3 3 4-.5-1.5 3.7L20 12l-2.5 2.8L18 19l-4-.7-2 3.7-2-3.7-4 .7 2.5-4.2L4 12l2.5-3.8L5 4.5 9 5z"/></symbol>
  <symbol id="i-checklist" viewBox="0 0 24 24" fill="none" stroke="currentColor" stroke-width="1.8"><path d="M9 7h11M9 12h11M9 17h11"/><path d="M4 7l2 2 3-3M4 12l2 2 3-3M4 17l2 2 3-3"/></symbol>
</svg>
