<svg xmlns="http://www.w3.org/2000/svg" viewBox="0 0 800 533">
  <style>
    .text1{font-family:Arial,Helvetica,sans-serif;font-size:64px;font-weight:bold;}
    .text2{font-family:Arial,Helvetica,sans-serif;font-size:36px;}
  </style>
  <rect width="800" height="533" fill="white"/>
  <g stroke="black" stroke-width="3" fill="black" transform="translate(120,200)">
    <circle r="6"/>
    <line x1="0" y1="0" x2="80" y2="0"/>
    <circle cx="80" cy="0" r="6"/>
    <line x1="0" y1="0" x2="56.57" y2="56.57"/>
    <circle cx="56.57" cy="56.57" r="6"/>
    <line x1="0" y1="0" x2="0" y2="80"/>
    <circle cx="0" cy="80" r="6"/>
    <line x1="0" y1="0" x2="-56.57" y2="56.57"/>
    <circle cx="-56.57" cy="56.57" r="6"/>
    <line x1="0" y1="0" x2="-80" y2="0"/>
    <circle cx="-80" cy="0" r="6"/>
    <line x1="0" y1="0" x2="-56.57" y2="-56.57"/>
    <circle cx="-56.57" cy="-56.57" r="6"/>
    <line x1="0" y1="0" x2="0" y2="-80"/>
    <circle cx="0" cy="-80" r="6"/>
    <line x1="0" y1="0" x2="56.57" y2="-56.57"/>
    <circle cx="56.57" cy="-56.57" r="6"/>
  </g>
  <text x="250" y="180" class="text1">Ryan Roberts</text>
  <text x="250" y="230" class="text2">Behavioural and Intelligence Services</text>
</svg>
